<?xml version="1.0" encoding="UTF-8" standalone="no"?>
<!-- Created with Inkscape (http://www.inkscape.org/) -->

<svg
   xmlns:dc="http://purl.org/dc/elements/1.1/"
   xmlns:cc="http://creativecommons.org/ns#"
   xmlns:rdf="http://www.w3.org/1999/02/22-rdf-syntax-ns#"
   xmlns:svg="http://www.w3.org/2000/svg"
   xmlns="http://www.w3.org/2000/svg"
   xmlns:sodipodi="http://sodipodi.sourceforge.net/DTD/sodipodi-0.dtd"
   xmlns:inkscape="http://www.inkscape.org/namespaces/inkscape"
   width="992.125"
   height="992.15625"
   id="svg2"
   version="1.1"
   inkscape:version="0.48.2 r9819"
   sodipodi:docname="logo.svg"
   inkscape:export-filename="/Users/mbarton/Dropbox/graphic_design/nucleotides/logo.png"
   inkscape:export-xdpi="90"
   inkscape:export-ydpi="90">
  <defs
     id="defs4">
    <marker
       inkscape:stockid="Arrow2Send"
       orient="auto"
       refY="0"
       refX="0"
       id="Arrow2Send"
       style="overflow:visible">
      <path
         id="path5031"
         style="font-size:12px;fill-rule:evenodd;stroke-width:0.625;stroke-linejoin:round"
         d="M 8.7185878,4.0337352 -2.2072895,0.01601326 8.7185884,-4.0017078 c -1.7454984,2.3720609 -1.7354408,5.6174519 -6e-7,8.035443 z"
         transform="matrix(-0.3,0,0,-0.3,0.69,0)"
         inkscape:connector-curvature="0" />
    </marker>
    <marker
       inkscape:stockid="DotS"
       orient="auto"
       refY="0"
       refX="0"
       id="DotS"
       style="overflow:visible">
      <path
         id="path4341"
         d="m -2.5,-1 c 0,2.76 -2.24,5 -5,5 -2.76,0 -5,-2.24 -5,-5 0,-2.76 2.24,-5 5,-5 2.76,0 5,2.24 5,5 z"
         style="fill-rule:evenodd;stroke:#000000;stroke-width:1pt;marker-start:none;marker-end:none"
         transform="matrix(0.2,0,0,0.2,1.48,0.2)"
         inkscape:connector-curvature="0" />
    </marker>
    <marker
       inkscape:stockid="DotL"
       orient="auto"
       refY="0"
       refX="0"
       id="DotL"
       style="overflow:visible">
      <path
         id="path4335"
         d="m -2.5,-1 c 0,2.76 -2.24,5 -5,5 -2.76,0 -5,-2.24 -5,-5 0,-2.76 2.24,-5 5,-5 2.76,0 5,2.24 5,5 z"
         style="fill-rule:evenodd;stroke:#000000;stroke-width:1pt;marker-start:none;marker-end:none"
         transform="matrix(0.8,0,0,0.8,5.92,0.8)"
         inkscape:connector-curvature="0" />
    </marker>
    <marker
       inkscape:stockid="DotM"
       orient="auto"
       refY="0"
       refX="0"
       id="DotM"
       style="overflow:visible">
      <path
         id="path4338"
         d="m -2.5,-1 c 0,2.76 -2.24,5 -5,5 -2.76,0 -5,-2.24 -5,-5 0,-2.76 2.24,-5 5,-5 2.76,0 5,2.24 5,5 z"
         style="fill-rule:evenodd;stroke:#000000;stroke-width:1pt;marker-start:none;marker-end:none"
         transform="matrix(0.4,0,0,0.4,2.96,0.4)"
         inkscape:connector-curvature="0" />
    </marker>
    <marker
       inkscape:stockid="Arrow1Send"
       orient="auto"
       refY="0"
       refX="0"
       id="Arrow1Send"
       style="overflow:visible">
      <path
         id="path4288"
         d="M 0,0 5,-5 -12.5,0 5,5 0,0 z"
         style="fill-rule:evenodd;stroke:#000000;stroke-width:1pt;marker-start:none"
         transform="matrix(-0.2,0,0,-0.2,-1.2,0)"
         inkscape:connector-curvature="0" />
    </marker>
    <marker
       inkscape:stockid="Arrow1Sstart"
       orient="auto"
       refY="0"
       refX="0"
       id="Arrow1Sstart"
       style="overflow:visible">
      <path
         id="path4285"
         d="M 0,0 5,-5 -12.5,0 5,5 0,0 z"
         style="fill-rule:evenodd;stroke:#000000;stroke-width:1pt;marker-start:none"
         transform="matrix(0.2,0,0,0.2,1.2,0)"
         inkscape:connector-curvature="0" />
    </marker>
    <marker
       inkscape:stockid="Arrow1Lstart"
       orient="auto"
       refY="0"
       refX="0"
       id="Arrow1Lstart"
       style="overflow:visible">
      <path
         id="path4273"
         d="M 0,0 5,-5 -12.5,0 5,5 0,0 z"
         style="fill-rule:evenodd;stroke:#000000;stroke-width:1pt;marker-start:none"
         transform="matrix(0.8,0,0,0.8,10,0)"
         inkscape:connector-curvature="0" />
    </marker>
    <marker
       inkscape:stockid="Arrow2Lend"
       orient="auto"
       refY="0"
       refX="0"
       id="Arrow2Lend"
       style="overflow:visible">
      <path
         id="path4294"
         style="font-size:12px;fill-rule:evenodd;stroke-width:0.625;stroke-linejoin:round"
         d="M 8.7185878,4.0337352 -2.2072895,0.01601326 8.7185884,-4.0017078 c -1.7454984,2.3720609 -1.7354408,5.6174519 -6e-7,8.035443 z"
         transform="matrix(-1.1,0,0,-1.1,-1.1,0)"
         inkscape:connector-curvature="0" />
    </marker>
    <marker
       inkscape:stockid="Arrow2Lstart"
       orient="auto"
       refY="0"
       refX="0"
       id="Arrow2Lstart"
       style="overflow:visible">
      <path
         id="path4291"
         style="font-size:12px;fill-rule:evenodd;stroke-width:0.625;stroke-linejoin:round"
         d="M 8.7185878,4.0337352 -2.2072895,0.01601326 8.7185884,-4.0017078 c -1.7454984,2.3720609 -1.7354408,5.6174519 -6e-7,8.035443 z"
         transform="matrix(1.1,0,0,1.1,1.1,0)"
         inkscape:connector-curvature="0" />
    </marker>
    <clipPath
       clipPathUnits="userSpaceOnUse"
       id="clipPath4093">
      <g
         transform="translate(-24.243661,-2.0203051)"
         id="g4095">
        <path
           style="fill:#ffffff;fill-opacity:1;stroke:#000000;stroke-width:3.75;stroke-miterlimit:4;stroke-opacity:1;stroke-dasharray:none"
           mask="none"
           d="m 1212.7217,228.59035 0,26.65625 c -5.8409,1.73786 -11.4531,4.01772 -16.75,6.8125 l -18.875,-18.875 c -13.7778,12.26577 -25.0974,22.60076 -38.875,38.90624 l 18.8437,18.84375 c -3.3022,5.49462 -0.044,0.13073 -9.3883,15.57143 l -23.7992,0.17857 c -1.8905,17.76689 0.3648,35.22506 0,55 l 26.6563,0 c 5.1057,12.92934 1.8782,5.19815 6.5625,15.75 l -18.875,18.875 c 15.2962,16.30314 24.116,24.59236 38.9062,38.875 l 18.875,-18.875 c 5.2898,2.789 10.8868,5.07728 16.7188,6.8125 l 0,26.65625 c 21.0474,0.31272 30.6654,0.21913 53,0 l 0,-26.65625 c 5.832,-1.73522 11.429,-4.0235 16.7187,-6.8125 l 18.875,18.875 c 16.8182,-15.29744 25.6292,-25.1186 38.9063,-38.90625 l -18.875,-18.875 c 2.6302,-4.98849 4.8351,-10.24484 6.5312,-15.71875 l 26.6875,0 c 0.1333,-17.67677 0.013,-32.548 0,-55 l -26.6875,0 c -1.6961,-5.47391 -3.901,-10.73026 -6.5312,-15.71875 l 18.875,-18.875 c -10.7471,-12.26487 -22.5719,-23.61001 -38.875,-38.90624 l -18.875,18.875 c -5.2969,-2.79478 -10.9091,-5.07464 -16.75,-6.8125 l 0,-26.65625 c -17.5119,-0.8178 -33.6958,-0.21913 -53,0 z"
           id="path4097"
           inkscape:connector-curvature="0"
           sodipodi:nodetypes="ccccccccccccccccccccccccccccccccc" />
        <path
           sodipodi:type="arc"
           style="fill:#ffffff;fill-opacity:1;stroke:#000000;stroke-width:3.75;stroke-miterlimit:4;stroke-opacity:1;stroke-dasharray:none"
           id="path4099"
           sodipodi:cx="451.03311"
           sodipodi:cy="175.04469"
           sodipodi:rx="38.890873"
           sodipodi:ry="38.890873"
           d="m 489.92398,175.04469 a 38.890873,38.890873 0 1 1 -77.78174,0 38.890873,38.890873 0 1 1 77.78174,0 z"
           transform="translate(785.83721,169.03127)" />
      </g>
    </clipPath>
    <clipPath
       clipPathUnits="userSpaceOnUse"
       id="clipPath4181">
      <path
         style="fill:#ffffff;fill-opacity:1;stroke:#000000;stroke-width:3.75;stroke-miterlimit:4;stroke-opacity:1;stroke-dasharray:none"
         mask="none"
         d="m 1047.0567,281.11828 0,26.65625 c -5.8409,1.73786 -11.4531,4.01772 -16.75,6.8125 l -18.875,-18.875 c -13.77782,12.26577 -25.09742,22.60076 -38.87502,38.90624 l 18.8437,18.84375 c -3.3022,5.49462 -0.044,0.13073 -9.3883,15.57143 l -23.7992,0.17857 c -1.8905,17.76689 0.3648,35.22506 0,55 l 26.6563,0 c 5.1057,12.92934 1.8782,5.19815 6.5625,15.75 l -18.875,18.875 c 15.2962,16.30314 24.116,24.59236 38.90622,38.875 l 18.875,-18.875 c 5.2898,2.789 10.8868,5.07728 16.7188,6.8125 l 0,26.65625 c 21.0474,0.31272 30.6654,0.21913 53,0 l 0,-26.65625 c 5.832,-1.73522 11.429,-4.0235 16.7187,-6.8125 l 18.875,18.875 c 16.8182,-15.29744 25.6292,-25.1186 38.9063,-38.90625 l -18.875,-18.875 c 2.6302,-4.98849 4.8351,-10.24484 6.5312,-15.71875 l 26.6875,0 c 0.1333,-17.67677 0.013,-32.548 0,-55 l -26.6875,0 c -1.6961,-5.47391 -3.901,-10.73026 -6.5312,-15.71875 l 18.875,-18.875 c -10.7471,-12.26487 -22.5719,-23.61001 -38.875,-38.90624 l -18.875,18.875 c -5.2969,-2.79478 -10.9091,-5.07464 -16.75,-6.8125 l 0,-26.65625 c -17.5119,-0.8178 -33.6958,-0.21913 -53,0 z"
         id="path4183"
         inkscape:connector-curvature="0"
         sodipodi:nodetypes="ccccccccccccccccccccccccccccccccc" />
    </clipPath>
    <clipPath
       clipPathUnits="userSpaceOnUse"
       id="clipPath4185">
      <path
         style="fill:#ffffff;fill-opacity:1;stroke:#000000;stroke-width:3.75;stroke-miterlimit:4;stroke-opacity:1;stroke-dasharray:none"
         mask="none"
         d="m 1047.0567,281.11828 0,26.65625 c -5.8409,1.73786 -11.4531,4.01772 -16.75,6.8125 l -18.875,-18.875 c -13.77782,12.26577 -25.09742,22.60076 -38.87502,38.90624 l 18.8437,18.84375 c -3.3022,5.49462 -0.044,0.13073 -9.3883,15.57143 l -23.7992,0.17857 c -1.8905,17.76689 0.3648,35.22506 0,55 l 26.6563,0 c 5.1057,12.92934 1.8782,5.19815 6.5625,15.75 l -18.875,18.875 c 15.2962,16.30314 24.116,24.59236 38.90622,38.875 l 18.875,-18.875 c 5.2898,2.789 10.8868,5.07728 16.7188,6.8125 l 0,26.65625 c 21.0474,0.31272 30.6654,0.21913 53,0 l 0,-26.65625 c 5.832,-1.73522 11.429,-4.0235 16.7187,-6.8125 l 18.875,18.875 c 16.8182,-15.29744 25.6292,-25.1186 38.9063,-38.90625 l -18.875,-18.875 c 2.6302,-4.98849 4.8351,-10.24484 6.5312,-15.71875 l 26.6875,0 c 0.1333,-17.67677 0.013,-32.548 0,-55 l -26.6875,0 c -1.6961,-5.47391 -3.901,-10.73026 -6.5312,-15.71875 l 18.875,-18.875 c -10.7471,-12.26487 -22.5719,-23.61001 -38.875,-38.90624 l -18.875,18.875 c -5.2969,-2.79478 -10.9091,-5.07464 -16.75,-6.8125 l 0,-26.65625 c -17.5119,-0.8178 -33.6958,-0.21913 -53,0 z"
         id="path4187"
         inkscape:connector-curvature="0"
         sodipodi:nodetypes="ccccccccccccccccccccccccccccccccc" />
    </clipPath>
    <clipPath
       clipPathUnits="userSpaceOnUse"
       id="clipPath4189">
      <path
         style="fill:#ffffff;fill-opacity:1;stroke:#000000;stroke-width:3.75;stroke-miterlimit:4;stroke-opacity:1;stroke-dasharray:none"
         mask="none"
         d="m 1047.0567,281.11828 0,26.65625 c -5.8409,1.73786 -11.4531,4.01772 -16.75,6.8125 l -18.875,-18.875 c -13.77782,12.26577 -25.09742,22.60076 -38.87502,38.90624 l 18.8437,18.84375 c -3.3022,5.49462 -0.044,0.13073 -9.3883,15.57143 l -23.7992,0.17857 c -1.8905,17.76689 0.3648,35.22506 0,55 l 26.6563,0 c 5.1057,12.92934 1.8782,5.19815 6.5625,15.75 l -18.875,18.875 c 15.2962,16.30314 24.116,24.59236 38.90622,38.875 l 18.875,-18.875 c 5.2898,2.789 10.8868,5.07728 16.7188,6.8125 l 0,26.65625 c 21.0474,0.31272 30.6654,0.21913 53,0 l 0,-26.65625 c 5.832,-1.73522 11.429,-4.0235 16.7187,-6.8125 l 18.875,18.875 c 16.8182,-15.29744 25.6292,-25.1186 38.9063,-38.90625 l -18.875,-18.875 c 2.6302,-4.98849 4.8351,-10.24484 6.5312,-15.71875 l 26.6875,0 c 0.1333,-17.67677 0.013,-32.548 0,-55 l -26.6875,0 c -1.6961,-5.47391 -3.901,-10.73026 -6.5312,-15.71875 l 18.875,-18.875 c -10.7471,-12.26487 -22.5719,-23.61001 -38.875,-38.90624 l -18.875,18.875 c -5.2969,-2.79478 -10.9091,-5.07464 -16.75,-6.8125 l 0,-26.65625 c -17.5119,-0.8178 -33.6958,-0.21913 -53,0 z"
         id="path4191"
         inkscape:connector-curvature="0"
         sodipodi:nodetypes="ccccccccccccccccccccccccccccccccc" />
    </clipPath>
    <clipPath
       clipPathUnits="userSpaceOnUse"
       id="clipPath4193">
      <path
         style="fill:#ffffff;fill-opacity:1;stroke:#000000;stroke-width:3.75;stroke-miterlimit:4;stroke-opacity:1;stroke-dasharray:none"
         mask="none"
         d="m 1047.0567,281.11828 0,26.65625 c -5.8409,1.73786 -11.4531,4.01772 -16.75,6.8125 l -18.875,-18.875 c -13.77782,12.26577 -25.09742,22.60076 -38.87502,38.90624 l 18.8437,18.84375 c -3.3022,5.49462 -0.044,0.13073 -9.3883,15.57143 l -23.7992,0.17857 c -1.8905,17.76689 0.3648,35.22506 0,55 l 26.6563,0 c 5.1057,12.92934 1.8782,5.19815 6.5625,15.75 l -18.875,18.875 c 15.2962,16.30314 24.116,24.59236 38.90622,38.875 l 18.875,-18.875 c 5.2898,2.789 10.8868,5.07728 16.7188,6.8125 l 0,26.65625 c 21.0474,0.31272 30.6654,0.21913 53,0 l 0,-26.65625 c 5.832,-1.73522 11.429,-4.0235 16.7187,-6.8125 l 18.875,18.875 c 16.8182,-15.29744 25.6292,-25.1186 38.9063,-38.90625 l -18.875,-18.875 c 2.6302,-4.98849 4.8351,-10.24484 6.5312,-15.71875 l 26.6875,0 c 0.1333,-17.67677 0.013,-32.548 0,-55 l -26.6875,0 c -1.6961,-5.47391 -3.901,-10.73026 -6.5312,-15.71875 l 18.875,-18.875 c -10.7471,-12.26487 -22.5719,-23.61001 -38.875,-38.90624 l -18.875,18.875 c -5.2969,-2.79478 -10.9091,-5.07464 -16.75,-6.8125 l 0,-26.65625 c -17.5119,-0.8178 -33.6958,-0.21913 -53,0 z"
         id="path4195"
         inkscape:connector-curvature="0"
         sodipodi:nodetypes="ccccccccccccccccccccccccccccccccc" />
    </clipPath>
  </defs>
  <sodipodi:namedview
     id="base"
     pagecolor="#ffffff"
     bordercolor="#666666"
     borderopacity="1.0"
     inkscape:pageopacity="0"
     inkscape:pageshadow="2"
     inkscape:zoom="0.12374369"
     inkscape:cx="667.18496"
     inkscape:cy="-245.80379"
     inkscape:document-units="px"
     inkscape:current-layer="layer1"
     showgrid="true"
     inkscape:window-width="1436"
     inkscape:window-height="856"
     inkscape:window-x="4"
     inkscape:window-y="0"
     inkscape:window-maximized="1"
     units="px"
     inkscape:snap-from-guide="false"
     objecttolerance="1"
     gridtolerance="1"
     guidetolerance="1"
     inkscape:object-nodes="true"
     fit-margin-top="0"
     fit-margin-left="0"
     fit-margin-right="0"
     fit-margin-bottom="0">
    <inkscape:grid
       type="xygrid"
       id="grid3399"
       empspacing="6"
       visible="true"
       enabled="true"
       snapvisiblegridlinesonly="true"
       units="in"
       spacingx="75px"
       spacingy="75px" />
  </sodipodi:namedview>
  <metadata
     id="metadata7">
    <rdf:RDF>
      <cc:Work
         rdf:about="">
        <dc:format>image/svg+xml</dc:format>
        <dc:type
           rdf:resource="http://purl.org/dc/dcmitype/StillImage" />
        <dc:title></dc:title>
      </cc:Work>
    </rdf:RDF>
  </metadata>
  <g
     inkscape:label="Layer 1"
     inkscape:groupmode="layer"
     id="layer1"
     transform="translate(438.75,2949.3438)">
    <rect
       style="fill:#ff74ff;fill-opacity:1;fill-rule:nonzero;stroke:#000000;stroke-width:50;stroke-miterlimit:4;stroke-opacity:1;stroke-dasharray:none"
       id="rect4286"
       width="942.1264"
       height="942.15399"
       x="-528.3761"
       y="1982.1859"
       ry="182.09708"
       transform="scale(-1,-1)" />
    <path
       style="fill:#ffffff;fill-opacity:1;stroke:#000000;stroke-width:20;stroke-miterlimit:4;stroke-opacity:1;stroke-dasharray:none"
       mask="none"
       d="m -122.255,-2778.4436 -20.8166,9.7069 c -3.4842,-3.9285 -7.3082,-7.481 -11.4197,-10.5998 l 7.8668,-21.6134 c -14.596,-6.2928 -26.789,-11.3691 -44.5395,-16.1907 l -7.8537,21.5776 c -5.4933,-0.5779 -0.1186,0.014 -15.5789,-1.6612 l -8.8059,-18.5205 c -14.5631,4.9935 -27.3755,13.1122 -42.9511,20.0284 l 9.7071,20.8167 c -8.2378,8.6954 -3.3756,3.3596 -9.91,10.8602 l -21.6134,-7.8666 c -7.1613,17.882 -10.4229,27.7882 -16.1907,44.5393 l 21.6134,7.8667 c -0.2517,5.1465 -7e-4,10.3507 0.7681,15.5369 l -20.8166,9.707 c 7.4202,16.5503 10.9958,24.0272 19.3,41.3891 l 20.8166,-9.7069 c 3.4788,3.9225 7.304,7.4601 11.4084,10.5753 l -7.8668,21.6134 c 18.0706,7.5632 28.9488,10.8676 44.5508,16.2152 l 7.8668,-21.6134 c 4.8533,0.2374 9.7611,0.045 14.6535,-0.6236 l 9.7183,20.841 c 13.8529,-6.3329 25.4224,-11.8423 42.951,-20.0284 l -9.7184,-20.841 c 3.6572,-3.3179 6.9592,-6.9539 9.8969,-10.8244 l 21.6134,7.8666 c 5.6645,-12.859 10.2181,-26.2247 16.2266,-44.5264 l -21.6134,-7.8666 c 0.2536,-5.1542 -0.018,-10.3672 -0.7796,-15.5613 l 20.8167,-9.707 c -5.7384,-13.9733 -12.0994,-26.3938 -19.3001,-41.3891 z"
       id="path4296"
       inkscape:connector-curvature="0"
       sodipodi:nodetypes="ccccccccccccccccccccccccccccccccc" />
    <path
       sodipodi:type="arc"
       style="fill:#ff74ff;fill-opacity:1;stroke:#000000;stroke-width:20.40708351;stroke-miterlimit:4;stroke-opacity:1;stroke-dasharray:none"
       id="path4298"
       sodipodi:cx="451.03311"
       sodipodi:cy="175.04469"
       sodipodi:rx="38.890873"
       sodipodi:ry="38.890873"
       d="m 489.92398,175.04469 c 0,21.47884 -17.41203,38.89088 -38.89087,38.89088 -21.47883,0 -38.89087,-17.41204 -38.89087,-38.89088 0,-21.47883 17.41204,-38.89087 38.89087,-38.89087 21.47884,0 38.89087,17.41204 38.89087,38.89087 z"
       transform="matrix(0.36415261,0.78092777,-0.78092777,0.36415261,-231.1948,-3133.4982)" />
    <g
       id="g5382">
      <path
         style="fill:#ffffff;fill-opacity:1;stroke:#000000;stroke-width:40;stroke-miterlimit:4;stroke-opacity:1;stroke-dasharray:none"
         mask="none"
         d="m 195.0707,-2098.9302 0,-65.9428 c 14.3241,-4.2992 28.0874,-9.9392 41.0774,-16.853 l 46.2888,46.6934 c 33.7885,-30.3433 61.5485,-55.9102 95.3365,-96.2471 l -46.212,-46.6161 c 8.0983,-13.5927 0.1079,-0.3234 23.0237,-38.5209 l 58.3649,-0.4418 c 0.8657,-40.81 -0.8947,-87.1405 0,-136.0602 l -65.3716,0 c -12.5211,-31.9849 -4.606,-12.8593 -16.0938,-38.9627 l 46.2888,-46.6934 c -37.5122,-40.3311 -59.1417,-60.8371 -95.413,-96.1698 l -46.2888,46.6934 c -12.9726,-6.8995 -26.6986,-12.5603 -41.0009,-16.853 l 0,-65.9428 c -51.6164,-0.7736 -75.2034,-0.5421 -129.9765,0 l 0,65.9428 c -14.3023,4.2927 -28.0283,9.9535 -41.0007,16.853 l -46.2888,-46.6934 c -41.2447,37.8431 -62.8527,62.1389 -95.4132,96.2471 l 46.2887,46.6934 c -6.4502,12.3406 -11.8575,25.3439 -16.017,38.8854 l -65.448,0 c -0.3269,43.7292 -0.032,80.518 0,136.0602 l 65.448,0 c 4.1595,13.5415 9.5668,26.5448 16.017,38.8854 l -46.2887,46.6934 c 26.356,30.3411 55.355,58.407 95.3365,96.2471 l 46.2887,-46.6934 c 12.9901,6.9138 26.7534,12.5538 41.0775,16.853 l 0,65.9428 c 42.946,2.0231 82.6351,0.5421 129.9765,0 z"
         id="path4290"
         inkscape:connector-curvature="0"
         sodipodi:nodetypes="ccccccccccccccccccccccccccccccccc" />
      <path
         sodipodi:type="arc"
         style="fill:#ff74ff;fill-opacity:1;stroke:#000000;stroke-width:16.2398243;stroke-miterlimit:4;stroke-opacity:1;stroke-dasharray:none"
         id="path4292"
         sodipodi:cx="451.03311"
         sodipodi:cy="175.04469"
         sodipodi:rx="38.890873"
         sodipodi:ry="38.890873"
         d="m 489.92398,175.04469 c 0,21.47884 -17.41203,38.89088 -38.89087,38.89088 -21.47883,0 -38.89087,-17.41204 -38.89087,-38.89088 0,-21.47883 17.41204,-38.89087 38.89087,-38.89087 21.47884,0 38.89087,17.41204 38.89087,38.89087 z"
         transform="matrix(-2.452386,0,0,-2.4738223,1241.9562,-1951.5916)" />
    </g>
  </g>
</svg>
